<svg xmlns="http://www.w3.org/2000/svg" width="32.996" height="40.387" viewBox="0 0 32.996 40.387">
  <g id="hybrid" transform="translate(-590 -1786.999)">
    <path id="Subtraction_183" data-name="Subtraction 183" d="M21727.188,16921.7l0,0c-.066-.039-.135-.086-.2-.131a4.262,4.262,0,0,1-1.344-1.736,1.935,1.935,0,0,0-.895-1.037,11.777,11.777,0,0,0-1.746-.664l-.186-.061a1.957,1.957,0,0,1-.982-.76,2.484,2.484,0,0,1-.332-.949c-.059-.332-.088-.643-.117-.945l0-.031-.01-.107c-.02-.2-.037-.389-.066-.564a1.725,1.725,0,0,0-.508-1.1,3.131,3.131,0,0,0-1.959-.584.907.907,0,0,1-.84-.9,6.052,6.052,0,0,1,1.162-3.637,6.3,6.3,0,0,1,3.012-2.186c.2-.066.414-.379.645-.951.092-.234.186-.506.285-.795l.033-.1.023-.07c.154-.457.33-.975.553-1.5a6.472,6.472,0,0,1,1.9-2.689,6.368,6.368,0,0,1,4.027-1.2,6.177,6.177,0,0,1,3.979,1.256,6.805,6.805,0,0,1,1.932,2.744c.232.551.42,1.094.588,1.572l.01.033.037.1c.1.287.2.559.287.785a3.17,3.17,0,0,0,.334.672c.08.1.109.109.131.109h.01a5.141,5.141,0,0,1,3.811,2.941c.053.131.094.24.127.338l-1.693.008-.252,0a3.194,3.194,0,0,0-2.385-1.525,2.153,2.153,0,0,1-1.172-.781,3.736,3.736,0,0,1-.486-.84,8.124,8.124,0,0,0,.152-1.018c0-.018,0-.021,0-.021l0-1.488-.957.3c-.07-.186-.135-.346-.193-.49a5.113,5.113,0,0,0-1.4-2.041,4.311,4.311,0,0,0-2.859-.867,4.5,4.5,0,0,0-2.908.84,4.6,4.6,0,0,0-1.375,1.932c-.074.176-.146.369-.229.605l-.885-.277v1.488s0,0,0,.021a7.477,7.477,0,0,0,.127.9,2.792,2.792,0,0,1-1.613,1.678,4.035,4.035,0,0,0-2.887,3.416,4.288,4.288,0,0,1,2.129.895,3.515,3.515,0,0,1,1.064,2.1c.063.371.1.717.125,1.041l0,.039c.023.227.041.422.07.568a1.2,1.2,0,0,0,.08.311l0-.008a.061.061,0,0,1,.023.008l.516.17a8.925,8.925,0,0,1,1.754.7,4.043,4.043,0,0,1,1.541,1.682c0,1.289.006,2.176,0,2.789Z" transform="translate(-21122.648 -15100.297)" fill="#fff" opacity="0.8"/>
    <g id="Union_124" data-name="Union 124" transform="translate(593.535 1796.191) rotate(45)" fill="#ff564f" opacity="0.5">
      <path d="M 2.501099824905396 4.500400066375732 C 2.362920045852661 4.500400066375732 2.250499963760376 4.387979984283447 2.250499963760376 4.249800205230713 L 2.250499963760376 3.249900102615356 L 2.250499963760376 2.749900102615356 L 1.750499963760376 2.749900102615356 L 0.7505999207496643 2.749900102615356 C 0.6129099130630493 2.749900102615356 0.5008999109268188 2.637890100479126 0.5008999109268188 2.500200033187866 C 0.5008999109268188 2.362020015716553 0.6129099130630493 2.249599933624268 0.7505999207496643 2.249599933624268 L 1.750499963760376 2.249599933624268 L 2.250499963760376 2.249599933624268 L 2.250499963760376 1.749600052833557 L 2.250499963760376 0.7497000098228455 C 2.250499963760376 0.6120100617408752 2.362920045852661 0.5000000596046448 2.501099824905396 0.5000000596046448 C 2.638789892196655 0.5000000596046448 2.750799894332886 0.6120100617408752 2.750799894332886 0.7497000098228455 L 2.750799894332886 1.749600052833557 L 2.750799894332886 2.249599933624268 L 3.250799894332886 2.249599933624268 L 4.250699996948242 2.249599933624268 C 4.388390064239502 2.249599933624268 4.500400066375732 2.362020015716553 4.500400066375732 2.500200033187866 C 4.500400066375732 2.637890100479126 4.388390064239502 2.749900102615356 4.250699996948242 2.749900102615356 L 3.250799894332886 2.749900102615356 L 2.750799894332886 2.749900102615356 L 2.750799894332886 3.249900102615356 L 2.750799894332886 4.249800205230713 C 2.750799894332886 4.387979984283447 2.638789892196655 4.500400066375732 2.501099824905396 4.500400066375732 Z" stroke="none"/>
      <path d="M 2.501099824905396 5.000400066375732 C 2.086199998855591 5.000400066375732 1.750499963760376 4.663800239562988 1.750499963760376 4.249800205230713 L 1.750499963760376 3.249900102615356 L 0.7505999207496643 3.249900102615356 C 0.3365999162197113 3.249900102615356 0.0008999290294013917 2.914200067520142 0.0008999290294013917 2.500200033187866 C 0.0008999290294013917 2.086199998855591 0.3365999162197113 1.749600052833557 0.7505999207496643 1.749600052833557 L 1.750499963760376 1.749600052833557 L 1.750499963760376 0.7497000098228455 C 1.750499963760376 0.3357000350952148 2.086199998855591 3.318786667705353e-08 2.501099824905396 3.318786667705353e-08 C 2.915099859237671 3.318786667705353e-08 3.250799894332886 0.3357000350952148 3.250799894332886 0.7497000098228455 L 3.250799894332886 1.749600052833557 L 4.250699996948242 1.749600052833557 C 4.664700031280518 1.749600052833557 5.000400066375732 2.086199998855591 5.000400066375732 2.500200033187866 C 5.000400066375732 2.914200067520142 4.664700031280518 3.249900102615356 4.250699996948242 3.249900102615356 L 3.250799894332886 3.249900102615356 L 3.250799894332886 4.249800205230713 C 3.250799894332886 4.663800239562988 2.915099859237671 5.000400066375732 2.501099824905396 5.000400066375732 Z" stroke="none" fill="#ff564f"/>
    </g>
    <g id="Union_125" data-name="Union 125" transform="translate(605.813 1786.998) rotate(45)" fill="#ff564f" opacity="0.5">
      <path d="M 3.00059986114502 5.50029993057251 C 2.78003978729248 5.50029993057251 2.600599765777588 5.320859909057617 2.600599765777588 5.100299835205078 L 2.600599765777588 3.900599956512451 L 2.600599765777588 3.400599956512451 L 2.100599765777588 3.400599956512451 L 0.9008998870849609 3.400599956512451 C 0.6803398728370667 3.400599956512451 0.5008998513221741 3.221159934997559 0.5008998513221741 3.00059986114502 C 0.5008998513221741 2.78003978729248 0.6803398728370667 2.600599765777588 0.9008998870849609 2.600599765777588 L 2.100599765777588 2.600599765777588 L 2.600599765777588 2.600599765777588 L 2.600599765777588 2.100599765777588 L 2.600599765777588 0.9008998870849609 C 2.600599765777588 0.6803398728370667 2.78003978729248 0.5008998513221741 3.00059986114502 0.5008998513221741 C 3.221159934997559 0.5008998513221741 3.400599956512451 0.6803398728370667 3.400599956512451 0.9008998870849609 L 3.400599956512451 2.100599765777588 L 3.400599956512451 2.600599765777588 L 3.900599956512451 2.600599765777588 L 5.100299835205078 2.600599765777588 C 5.320859909057617 2.600599765777588 5.50029993057251 2.78003978729248 5.50029993057251 3.00059986114502 C 5.50029993057251 3.221159934997559 5.320859909057617 3.400599956512451 5.100299835205078 3.400599956512451 L 3.900599956512451 3.400599956512451 L 3.400599956512451 3.400599956512451 L 3.400599956512451 3.900599956512451 L 3.400599956512451 5.100299835205078 C 3.400599956512451 5.320859909057617 3.221159934997559 5.50029993057251 3.00059986114502 5.50029993057251 Z" stroke="none"/>
      <path d="M 3.00059986114502 6.00029993057251 C 2.502899885177612 6.00029993057251 2.100599765777588 5.597099781036377 2.100599765777588 5.100299835205078 L 2.100599765777588 3.900599956512451 L 0.9008998870849609 3.900599956512451 C 0.4031998515129089 3.900599956512451 0.0008998611592687666 3.497399806976318 0.0008998611592687666 3.00059986114502 C 0.0008998611592687666 2.503799915313721 0.4031998515129089 2.100599765777588 0.9008998870849609 2.100599765777588 L 2.100599765777588 2.100599765777588 L 2.100599765777588 0.9008998870849609 C 2.100599765777588 0.4040998518466949 2.502899885177612 0.0008998611592687666 3.00059986114502 0.0008998611592687666 C 3.497399806976318 0.0008998611592687666 3.900599956512451 0.4040998518466949 3.900599956512451 0.9008998870849609 L 3.900599956512451 2.100599765777588 L 5.100299835205078 2.100599765777588 C 5.597099781036377 2.100599765777588 6.00029993057251 2.503799915313721 6.00029993057251 3.00059986114502 C 6.00029993057251 3.497399806976318 5.597099781036377 3.900599956512451 5.100299835205078 3.900599956512451 L 3.900599956512451 3.900599956512451 L 3.900599956512451 5.100299835205078 C 3.900599956512451 5.597099781036377 3.497399806976318 6.00029993057251 3.00059986114502 6.00029993057251 Z" stroke="none" fill="#ff564f"/>
    </g>
    <g id="Union_126" data-name="Union 126" transform="translate(593.533 1815.547) rotate(45)" fill="#ff564f" opacity="0.5">
      <path d="M1.051,2.549v-.6h-.6a.45.45,0,1,1,0-.9h.6v-.6a.45.45,0,1,1,.9,0v.6h.6a.45.45,0,1,1,0,.9h-.6v.6a.45.45,0,1,1-.9,0Z" stroke="none"/>
      <path d="M 1.501200079917908 2.998800039291382 C 1.252800107002258 2.998800039291382 1.051200032234192 2.797199964523315 1.051200032234192 2.548799991607666 L 1.051200032234192 1.948500037193298 L 0.4509000778198242 1.948500037193298 C 0.2025000602006912 1.948500037193298 0.0009000648278743029 1.746899962425232 0.0009000648278743029 1.498499989509583 C 0.0009000648278743029 1.250100016593933 0.2025000602006912 1.048500061035156 0.4509000778198242 1.048500061035156 L 1.051200032234192 1.048500061035156 L 1.051200032234192 0.4491000175476074 C 1.051200032234192 0.2006999999284744 1.252800107002258 -0.000899995444342494 1.501200079917908 -0.000899995444342494 C 1.749600052833557 -0.000899995444342494 1.951200008392334 0.2006999999284744 1.951200008392334 0.4491000175476074 L 1.951200008392334 1.048500061035156 L 2.550600051879883 1.048500061035156 C 2.799900054931641 1.048500061035156 3.000600099563599 1.250100016593933 3.000600099563599 1.498499989509583 C 3.000600099563599 1.746899962425232 2.799900054931641 1.948500037193298 2.550600051879883 1.948500037193298 L 1.951200008392334 1.948500037193298 L 1.951200008392334 2.548799991607666 C 1.951200008392334 2.797199964523315 1.749600052833557 2.998800039291382 1.501200079917908 2.998800039291382 Z" stroke="none" fill="#ff564f"/>
    </g>
    <path id="path" d="M5,8c0,1.656,1.085,2.286,1.714,2.286A1.661,1.661,0,0,0,8.429,9.143Zm8,0L9.571,9.143a1.661,1.661,0,0,0,1.714,1.143C11.915,10.286,13,9.656,13,8Z" transform="translate(598.035 1797.283)" fill="#ff564f"/>
    <path id="legit" d="M6.2,7A2.2,2.2,0,0,0,4,9.2v7.6A2.2,2.2,0,0,0,6.2,19h8.2v-.54A3.6,3.6,0,1,1,20,13.944V9.2A2.2,2.2,0,0,0,17.8,7Zm1.6,3.2h8.4a.6.6,0,0,1,0,1.2H7.8a.6.6,0,0,1,0-1.2Zm9.4,3.2A2.8,2.8,0,1,0,20,16.2a2.8,2.8,0,0,0-2.8-2.8ZM7.8,14.6h3.6a.6.6,0,1,1,0,1.2H7.8a.6.6,0,0,1,0-1.2Zm7.4,4.592v2.6a.4.4,0,0,0,.628.328l1.144-.8a.4.4,0,0,1,.456,0l1.144.8a.4.4,0,0,0,.628-.328v-2.6a3.594,3.594,0,0,1-4,0Z" transform="translate(602.996 1805.193)" fill="#d1d0d1"/>
  </g>
</svg>
